{"accessors":[{"bufferView":2,"componentType":5126,"count":27125,"max":[2.4036669731140137,0.5682498216629028,1.573286771774292],"min":[-2.745858907699585,-0.6492529511451721,-1.4389259815216064],"type":"VEC3"},{"bufferView":2,"byteOffset":325500,"componentType":5126,"count":27125,"max":[1,1,1],"min":[-1,-1,-1],"type":"VEC3"},{"bufferView":1,"componentType":5126,"count":27125,"max":[0.8018429279327393,0.8570326566696167],"min":[0.010387122631072998,0.07832679152488708],"type":"VEC2"},{"bufferView":0,"componentType":5125,"count":41412,"max":[27124],"min":[0],"type":"SCALAR"}],"asset":{"extras":{"author":"Georgina_Tugores (https://sketchfab.com/Georgina_Tugores)","license":"CC-BY-4.0 (http://creativecommons.org/licenses/by/4.0/)","source":"https://sketchfab.com/3d-models/raygun-blackops-ii-zombie-5176317462e44954bf9b8d39b8d69289","title":"Raygun BlackOps: II Zombie"},"generator":"Sketchfab-9.55.1","version":"2.0"},"bufferViews":[{"buffer":0,"byteLength":165648,"byteOffset":0,"name":"floatBufferViews","target":34963},{"buffer":0,"byteLength":217000,"byteOffset":165648,"byteStride":8,"name":"floatBufferViews","target":34962},{"buffer":0,"byteLength":651000,"byteOffset":382648,"byteStride":12,"name":"floatBufferViews","target":34962}],"buffers":[{"byteLength":1033648,"uri":"data:application/octet-stream;base64,"}],"images":[{"uri":"data:application/octet-stream;base64,"}],"materials":[{"doubleSided":true,"emissiveFactor":[0,0,0],"name":"Material","pbrMetallicRoughness":{"baseColorFactor":[1,1,1,1],"baseColorTexture":{"index":0,"texCoord":0},"metallicFactor":0.17195489727547442,"roughnessFactor":0}}],"meshes":[{"name":"Cube_Material_0","primitives":[{"attributes":{"NORMAL":1,"POSITION":0,"TEXCOORD_0":2},"indices":3,"material":0,"mode":4}]}],"nodes":[{"children":[1],"name":"RootNode (gltf orientation matrix)","rotation":[-0.7071067811865475,0,0,0.7071067811865476]},{"children":[2],"name":"RootNode (model correction matrix)"},{"children":[3],"matrix":[1,0,0,0,0,0,1,0,0,-1,0,0,0,0,0,1],"name":"5a08095927fc4396a1519b1e185833e1.fbx"},{"children":[4,6,9,12,15,18],"name":"RootNode"},{"children":[5],"matrix":[100,0,0,0,0,-0.00001629206793918314,-99.99999999999868,0,0,99.99999999999868,-0.00001629206793918314,0,0,0,0,1],"name":"Cube"},{"mesh":0,"name":"Cube_Material_0"},{"children":[7],"matrix":[100,0,0,0,0,99.99999999999972,-0.0000075497901264043296,0,0,0.0000075497901264043296,99.99999999999972,0,405.8677673339844,242.2109832763672,-28.3902645111084,1],"name":"Sun"},{"children":[8],"matrix":[1,0,0,0,0,2.220446049250313e-16,1,0,0,-1,2.220446049250313e-16,0,0,0,0,1],"name":""},{"name":""},{"children":[10],"matrix":[58.34442442875265,73.50410729206675,34.54090834465578,0,-73.50410219206464,29.70301472604506,60.94978548972935,0,34.54090726379445,-60.94979075236515,71.35859256345276,0,-1645.953369140625,-334.6524963378906,-2548.272705078125,1],"name":"Sun.001"},{"children":[11],"matrix":[1,0,0,0,0,2.220446049250313e-16,1,0,0,-1,2.220446049250313e-16,0,0,0,0,1],"name":""},{"name":""},{"children":[13],"matrix":[100,0,0,0,0,99.99999999999972,-0.0000075497901264043296,0,0,0.0000075497901264043296,99.99999999999972,0,104.36514282226562,267.53021240234375,121.62787628173828,1],"name":"Sun.002"},{"children":[14],"matrix":[1,0,0,0,0,2.220446049250313e-16,1,0,0,-1,2.220446049250313e-16,0,0,0,0,1],"name":""},{"name":""},{"children":[16],"matrix":[100,0,0,0,0,99.99999999999972,-0.0000075497901264043296,0,0,0.0000075497901264043296,99.99999999999972,0,-277.98150634765625,233.65664672851562,110.86760711669922,1],"name":"Sun.003"},{"children":[17],"matrix":[1,0,0,0,0,2.220446049250313e-16,1,0,0,-1,2.220446049250313e-16,0,0,0,0,1],"name":""},{"name":""},{"children":[19],"matrix":[100,0,0,0,0,99.99999999999972,-0.0000075497901264043296,0,0,0.0000075497901264043296,99.99999999999972,0,-109.46871948242188,323.220458984375,-379.1903381347656,1],"name":"Sun.004"},{"children":[20],"matrix":[1,0,0,0,0,2.220446049250313e-16,1,0,0,-1,2.220446049250313e-16,0,0,0,0,1],"name":""},{"name":""}],"samplers":[{"magFilter":9729,"minFilter":9987,"wrapS":10497,"wrapT":10497}],"scene":0,"scenes":[{"name":"OSG_Scene","nodes":[0]}],"textures":[{"sampler":0,"source":0}]}